
<svg width="400" height="400" xmlns="http://www.w3.org/2000/svg">
  <path d="M59.355 83.05c-22.812 6.945-30.179 44.678-22.474 115.107 1.296 11.855 1.234 11.542 2.361 11.825 2.771.695 2.913.051 1.86-8.425-5.157-41.537-4.335-75.697 2.286-95.013 10.921-31.857 39.935-26.405 86.197 16.199 4.51 4.153 4.859 4.364 6.107 3.696 1.634-.875.958-2.574-2.144-5.388-24.407-22.14-40.847-33.095-56.497-37.646-4.724-1.374-13.754-1.554-17.696-.355m271.183-.086c-15.267 2.4-34.121 15.519-58.372 40.616-4.901 5.072-5.545 6.119-4.442 7.222 1.184 1.185 2.307.528 6.596-3.861 53.424-54.661 80.788-53.953 87.863 2.276 2.174 17.271 2.04 47.441-.331 74.566-.574 6.564-.463 7.093 1.487 7.093 1.835 0 1.887-.24 2.722-12.535 5.645-83.057-5.747-120.057-35.523-115.377m-1.664 17.493c-8.828 2.002-21.343 12.077-34.794 28.01-6.541 7.747-7.036 8.718-5.009 9.803 1.224.654 2.009.084 4.994-3.632 21.129-26.294 37.676-36.11 46.193-27.405 8.065 8.242 11.351 35.04 8.866 72.306-.85 12.753-.796 14.456.469 14.903 2.088.736 2.353-.081 3.001-9.251 4.345-61.46-3.457-89.329-23.72-84.734m-266.161 3.179c-11.926 4.715-15.057 27.707-9.433 69.267 1.11 8.204 1.205 8.479 2.92 8.479 2.019 0 2.175-.694 1.337-5.973-3.904-24.615-4.314-46.787-1.061-57.415 5.611-18.336 20.439-14.862 48.1 11.268 5.245 4.954 6.313 5.6 7.424 4.489 1.052-1.052.415-2.039-4.258-6.597-19.931-19.437-35.191-27.407-45.029-23.518m227.516 138.96c-18.481 3.317-26.185 26.068-13.476 39.795 12.928 13.964 36.525 8.001 40.83-10.317 3.973-16.908-10.498-32.503-27.354-29.478m-191.412.893c-15.781 2.996-24.072 21.631-15.852 35.631 9.469 16.127 33.767 15.461 41.956-1.149 8.977-18.211-6.201-38.261-26.104-34.482m91.109 22.433c-1.377 1.466-1.035 2.339 2.868 7.321l3.66 4.672-.922 1.851c-2.339 4.693-8.101 7.761-14.618 7.785-2.098.008-2.947 1.087-2.179 2.772.388.852.608.921 2.916.915 7.102-.018 14.118-3.462 16.923-8.305.399-.689.455-.671 1.263.385 3.721 4.866 7.727 6.982 13.239 6.995l3.859.01.355-1.003c.579-1.631-.497-2.5-3.095-2.5-4.488 0-8.453-2.145-11.434-6.185-2.282-3.093-2.427-2.428 1.672-7.64 3.753-4.771 4.112-5.741 2.64-7.124-1.367-1.285-15.933-1.241-17.147.051m176.71 21.31c-9.087 1.321-22.545 9.364-21.357 12.763.662 1.892 1.968 1.581 5.6-1.333 9.607-7.708 20.093-9.806 33.274-6.657 3.444.823 4.6.731 4.893-.388.407-1.558-.112-2.198-2.269-2.797a94.515 94.515 0 01-2.622-.756c-3.095-1.021-12.987-1.491-17.519-.832m-346.912 2.344c-5.974 1.274-7.714 1.997-7.861 3.267-.279 2.406.815 2.521 7.308.765 11.633-3.145 23.58-.529 31.949 6.996 4.134 3.716 6.424 1.021 2.397-2.82-8.421-8.033-20.671-11.008-33.793-8.208m12.796 17.55c-6.763 1.043-17.405 7.309-17.405 10.248 0 2.459 1.925 2.5 4.73.101 8.51-7.277 19.43-8.759 30.341-4.116 3.066 1.305 3.671 1.357 4.547.389 3.064-3.386-12.707-8.088-22.213-6.622m323.406.116c-7.691 1.47-10.339 2.953-9.31 5.211.54 1.186 1.45 1.127 6.195-.398 10.248-3.294 22.123-.422 30.342 7.338 1.679 1.587 3.944 1.171 3.944-.724 0-2.433-9.886-9.02-16.29-10.854-3.476-.996-11.129-1.29-14.881-.573" fill-rule="evenodd" fill="#f9f9f9"/>
</svg>
